<svg width="50" height="50" viewBox="0 0 50 50" xmlns="http://www.w3.org/2000/svg">
  <path fill-rule="evenodd" clip-rule="evenodd" d="M25 6.1218C22.3647 6.12202 20.2287 8.2197 20.2287 10.807C20.2307 12.662 21.3466 14.3413 23.0754 15.0897C22.7062 17.3763 21.5654 22.6481 18.3952 23.0987C16.0402 23.4333 14.5404 21.8117 13.5155 19.9549C14.6236 19.1635 15.28 17.9 15.2822 16.5547C15.2823 14.2277 13.361 12.3414 10.991 12.3414C8.6209 12.3413 6.6995 14.2278 6.6998 16.5547C6.7008 18.6974 8.3402 20.4978 10.5087 20.7384L15.4817 38.2784H34.5177L39.4913 20.7384C41.6596 20.4974 43.2983 18.697 43.2996 16.5547C43.2997 14.2277 41.3784 12.3414 39.0084 12.3414C36.6386 12.3416 34.7175 14.228 34.7178 16.5547C34.7198 17.8999 35.3761 19.1633 36.4839 19.9549C35.4589 21.8118 33.9591 23.4333 31.6042 23.0987C28.434 22.6482 27.2932 17.3764 26.924 15.0897C28.6528 14.3414 29.7691 12.6621 29.7707 10.807C29.7709 8.2199 27.6352 6.1224 25.0001 6.1218H25Z" fill="#000" stroke="#000" stroke-width="1.6" stroke-linejoin="round"/>
  <path fill-rule="evenodd" clip-rule="evenodd" d="M13.227 38.286C11.7902 38.286 10.6 39.5025 10.6 40.9707V41.5156L10.6125 44.2003H39.3615L39.374 41.5156V40.9707C39.374 39.5025 38.1837 38.286 36.747 38.286H24.987H13.227Z" fill="#000" stroke="#000" stroke-width="1.6" stroke-linecap="round" stroke-linejoin="round"/>
</svg>
