<svg xmlns="http://www.w3.org/2000/svg" viewBox="423 143 406 919"><g transform="translate(0,1254) scale(0.1,-0.1)" fill="#F8B500"><path d="M6205 11016 c-64 -29 -105 -94 -105 -167 0 -51 11 -73 67 -131 l46
-46 -12 -129 c-41 -430 -186 -833 -348 -961 -80 -63 -120 -77 -218 -77 -83 0
-96 3 -165 36 -118 57 -267 197 -423 398 l-41 53 22 39 c46 79 18 190 -58 229
-51 26 -125 26 -167 0 -98 -60 -94 -228 7 -280 21 -11 47 -20 58 -20 21 0 42
-18 42 -37 0 -8 28 -60 62 -116 83 -138 191 -364 233 -489 55 -168 68 -259 62
-438 -6 -155 -11 -186 -61 -375 -40 -150 -52 -285 -38 -416 35 -307 172 -558
425 -775 74 -65 65 -107 -34 -157 -42 -21 -49 -31 -65 -93 -1 -7 -55 -37 -119
-68 -120 -58 -155 -91 -155 -143 0 -43 64 -96 200 -167 76 -40 142 -82 157
-100 39 -46 79 -142 100 -237 25 -117 25 -474 -1 -638 -64 -419 -207 -816
-397 -1101 -83 -125 -214 -257 -297 -299 -114 -58 -128 -93 -63 -164 55 -60
71 -97 71 -164 -1 -108 -39 -161 -235 -329 -139 -118 -233 -214 -271 -279
-104 -178 -102 -390 4 -544 78 -112 76 -108 58 -136 -9 -14 -51 -49 -93 -78
-42 -28 -91 -65 -110 -81 l-33 -28 0 -150 c0 -83 5 -158 10 -169 124 -231
3224 -272 3812 -49 85 32 88 38 88 215 l0 151 -27 26 c-16 13 -67 53 -116 87
-111 80 -117 90 -80 143 65 94 77 115 96 168 28 79 33 209 12 290 -39 150
-118 254 -329 434 -179 152 -221 207 -233 304 -8 68 10 120 62 181 69 80 61
111 -43 166 -256 135 -510 573 -641 1105 -62 255 -75 361 -76 615 0 239 10
323 53 438 37 102 86 150 231 226 124 65 191 122 191 162 0 60 -47 102 -178
160 -71 31 -89 43 -96 66 -15 51 -22 58 -75 84 -104 51 -99 75 34 202 58 54
127 129 154 166 217 292 278 673 166 1028 -43 137 -58 252 -52 408 10 269 71
436 336 920 35 63 42 71 75 76 21 3 49 15 64 26 32 23 72 97 72 133 0 40 -42
113 -79 137 -24 17 -49 23 -86 23 -123 0 -200 -122 -146 -232 11 -25 21 -49
21 -56 0 -18 -155 -207 -241 -293 -98 -98 -181 -153 -272 -181 -176 -53 -329
22 -447 221 -115 195 -203 524 -234 877 l-5 61 39 32 c63 51 89 121 70 191
-27 101 -142 157 -235 116z"/></g></svg>