<svg width="50" height="50" viewBox="0 0 50 50" xmlns="http://www.w3.org/2000/svg">
  <path fill-rule="evenodd" clip-rule="evenodd" d="M25.006 3.8679C23.2033 3.96766 21.7783 5.1017 21.7778 6.4863C21.7778 7.05148 22.0223 8.1302 22.4708 8.583H16.7053V13.6886H23.0109L20.4007 16.5217L23.0741 18.6886C17.4898 19.0513 11.0531 20.3315 9.92007 22.6861C8.65167 25.3237 16.1352 38.2851 16.1352 38.2851H33.8652C33.8652 38.2851 41.3487 25.3231 40.0803 22.6861C38.9466 20.3286 32.486 19.0461 26.9013 18.6871L29.6112 16.5217L27.001 13.6886H33.3066V8.583H27.5411C27.9895 8.13028 28.234 7.0515 28.234 6.4863C28.2335 5.1018 26.809 3.9676 25.0063 3.8679H25.006Z" fill="#000" stroke="#000" stroke-width="1.6" stroke-linejoin="round"/>
  <path fill-rule="evenodd" clip-rule="evenodd" d="M13.242 38.286C11.8052 38.286 10.615 39.5025 10.615 40.9707V41.5156L10.6276 44.2003H39.3766L39.3891 41.5156V40.9707C39.3891 39.5025 38.1988 38.286 36.7621 38.286H25.0021H13.242Z" fill="#000" stroke="#000" stroke-width="1.6" stroke-linecap="round" stroke-linejoin="round"/>
</svg>
