<svg width="50" height="50" viewBox="0 0 50 50" xmlns="http://www.w3.org/2000/svg">
  <path fill-rule="evenodd" clip-rule="evenodd" d="M25 12.264C21.4394 12.2643 18.5528 14.919 18.5528 18.1948C18.5528 19.8985 19.3519 21.5201 20.7427 22.6449H19.0769C17.7645 22.6449 16.6778 23.6223 16.6778 24.802V25.2397C16.6778 26.4194 17.7645 27.3973 19.0769 27.3973H21.4531C21.4531 34.6899 12.1109 33.8536 12.7643 44.1763L24.9993 44.1683L37.2348 44.1763C37.8881 33.8533 28.546 34.6899 28.546 27.3973H30.9222C32.2345 27.3973 33.3213 26.4194 33.3213 25.2397V24.802C33.3213 23.6223 32.2346 22.6449 30.9222 22.6449H29.2564C30.6472 21.52 31.4463 19.8985 31.4463 18.1948C31.4463 14.919 28.5605 12.2644 25 12.264Z" fill="#000" stroke="#000" stroke-width="1.6" stroke-linejoin="round"/>
</svg>
