<svg width="50" height="50" viewBox="0 0 50 50" xmlns="http://www.w3.org/2000/svg">
  <path fill-rule="evenodd" clip-rule="evenodd" d="M12.855 10.383V18.0465C12.855 21.3138 19.3859 21.8203 19.3859 21.8203C19.0326 31.684 14.3488 38.3063 14.3488 38.3063L35.7768 38.267C35.7768 38.267 31.126 31.6479 30.7762 21.821C30.7762 21.821 37.6729 21.3143 37.6729 18.0472V10.3837H32.9533C32.9533 10.3837 33.4117 12.6349 32.4834 13.6441C31.448 14.7699 30.0646 14.7699 29.0289 13.6441C28.1009 12.6349 28.5597 10.3837 28.5597 10.3837H21.9688C21.9688 10.3837 22.4276 12.6349 21.4996 13.6441C20.3775 14.8638 18.8003 14.8638 17.6784 13.6441C16.7501 12.6349 17.2092 10.3837 17.2092 10.3837L12.855 10.383Z" fill="#000" stroke="#000" stroke-width="1.6" stroke-linejoin="round"/>
  <path fill-rule="evenodd" clip-rule="evenodd" d="M13.239 38.286C11.8022 38.286 10.612 39.5024 10.612 40.9706V41.5155L10.6246 44.2001H39.3746L39.3871 41.5155V40.9706C39.3871 39.5024 38.1969 38.286 36.7601 38.286H25.0001H13.239Z" fill="#000" stroke="#000" stroke-width="1.6" stroke-linecap="round" stroke-linejoin="round"/>
</svg>
