<svg width="50" height="50" viewBox="0 0 50 50" xmlns="http://www.w3.org/2000/svg">
  <path fill-rule="evenodd" clip-rule="evenodd" d="M26.87 8.22351C21.0732 5.92501 19.9175 10.7498 22.2015 14.083C12.3044 24.683 10.9485 30.508 16.0072 38.287H33.9962C40.0811 31.3745 36.5554 23.772 29.1741 15.987C26.2911 20.1059 25.9002 23.3376 25.2278 27.118L21.6073 27.0469C20.9485 21.0413 29.2295 11.9069 26.8693 8.22394L26.87 8.22351Z" fill="#000" stroke="#000" stroke-width="1.6001" stroke-linejoin="round"/>
  <path fill-rule="evenodd" clip-rule="evenodd" d="M13.24 38.286C11.8032 38.286 10.613 39.5025 10.613 40.9707V41.5156L10.6255 44.2003H39.3745L39.3871 41.5156V40.9707C39.3871 39.5025 38.1968 38.286 36.7601 38.286H25.0001H13.24Z" fill="#000" stroke="#000" stroke-width="1.6" stroke-linecap="round" stroke-linejoin="round"/>
</svg>
